<svg width="124" height="124" viewBox="0 0 124 124" fill="none" xmlns="http://www.w3.org/2000/svg">
<circle cx="62" cy="62" r="62" fill="#871F16" fill-opacity="0.1"/>
<circle cx="62" cy="62" r="43" fill="#871F16" fill-opacity="0.5"/>
<circle cx="62" cy="62" r="28" fill="#871F16"/>
<path d="M62.0001 52C57.5891 52 54.0001 55.589 54.0001 59.995C53.9711 66.44 61.6961 71.784 62.0001 72C62.0001 72 70.0291 66.44 70.0001 60C70.0001 55.589 66.4111 52 62.0001 52ZM62.0001 64C59.7901 64 58.0001 62.21 58.0001 60C58.0001 57.79 59.7901 56 62.0001 56C64.2101 56 66.0001 57.79 66.0001 60C66.0001 62.21 64.2101 64 62.0001 64Z" fill="white"/>
</svg>
