<svg width="18" height="18" viewBox="0 0 18 18" fill="none" xmlns="http://www.w3.org/2000/svg">
<g clip-path="url(#clip0_2002_4425)">
<path d="M16.4655 9.25238C16 9.47267 15.4801 9.59611 14.9318 9.59611H14.4147V9.84847C14.4147 10.345 14.2558 11.0831 13.9425 12.0424C13.9162 12.123 13.9002 12.2065 13.8948 12.2911C14.169 12.5404 14.5329 12.6925 14.9318 12.6925C15.7824 12.6925 16.4744 12.0005 16.4744 11.1499C16.4744 10.7541 16.3244 10.3928 16.0785 10.1194C16.2901 9.88423 16.4304 9.58377 16.4655 9.25238ZM3.09094 9.8485V9.59615H2.57389C2.02563 9.59615 1.50571 9.47267 1.04018 9.25242C1.07529 9.58381 1.21555 9.88426 1.42715 10.1195C1.18122 10.3929 1.03129 10.7542 1.03129 11.15C1.03129 12.0006 1.7233 12.6926 2.57389 12.6926C2.97273 12.6926 3.33669 12.5404 3.61082 12.2911C3.60546 12.2066 3.58946 12.123 3.5632 12.0425C3.24983 11.0831 3.09094 10.3449 3.09094 9.8485ZM16.9914 5.4854H13.1256C13.8953 5.92652 14.4147 6.75185 14.4147 7.6959V8.5706H14.9318C16.3502 8.5706 17.5042 7.41661 17.5042 5.99817C17.5042 5.71498 17.2746 5.4854 16.9914 5.4854ZM0.51424 5.4854C0.231052 5.4854 0.00146484 5.71498 0.00146484 5.99817C0.00146484 7.41661 1.15545 8.5706 2.57389 8.5706H3.09094V7.6959C3.09094 6.75185 3.61045 5.92652 4.38006 5.4854H0.51424ZM10.2954 9.7896V10.8067C10.2954 11.6573 9.60343 12.3493 8.75283 12.3493C7.90224 12.3493 7.21023 11.6573 7.21023 10.8067V9.7896C6.78073 10.0524 6.23483 10.2897 5.66336 10.2897C5.09189 10.2897 4.54599 10.0524 4.11649 9.78964V9.8485C4.11649 10.2257 4.26622 10.8918 4.53809 11.7239C4.73387 12.3232 4.64335 12.968 4.28974 13.4927C4.1767 13.6597 4.11636 13.8568 4.11649 14.0585V15.4634C4.11649 16.5879 5.0414 17.5028 6.17826 17.5028H11.3274C12.4643 17.5028 13.3891 16.5879 13.3891 15.4634V14.0585C13.3893 13.8569 13.3289 13.6598 13.2159 13.4928C12.8623 12.9679 12.7718 12.3232 12.9675 11.7239C13.2394 10.8918 13.3891 10.2257 13.3891 9.8485V9.78964C12.9597 10.0524 12.4138 10.2897 11.8423 10.2897C11.2708 10.2897 10.7249 10.0524 10.2954 9.7896ZM12.3551 14.9303C12.3551 15.7786 11.665 16.4687 10.8168 16.4687H6.68891C5.84068 16.4687 5.15059 15.7786 5.15059 14.9303C5.15059 14.0821 5.84068 13.392 6.68891 13.392H10.8168C11.665 13.392 12.3551 14.0821 12.3551 14.9303ZM11.8459 6.17043H10.2065C10.2654 6.33598 10.2955 6.51042 10.2954 6.68615V7.70462C10.7249 7.44184 11.2708 7.20453 11.8423 7.20453C12.4138 7.20453 12.9597 7.44188 13.3892 7.70462V7.6959C13.3892 6.85475 12.6969 6.17043 11.8459 6.17043ZM7.21023 6.68615C7.21023 6.50531 7.24179 6.33178 7.29922 6.17043H5.65981C4.8088 6.17043 4.11649 6.85478 4.11649 7.6959V7.70462C4.54599 7.44184 5.09189 7.20453 5.66336 7.20453C6.23483 7.20453 6.78073 7.44188 7.21023 7.70462V6.68615ZM7.27149 5.14488H7.29645C6.5588 3.50684 6.18468 2.36437 6.18468 1.7486C6.18468 1.63203 6.19456 1.51877 6.21254 1.40887L4.75787 1.04517C4.68227 1.02629 4.60337 1.02489 4.52715 1.04106C4.45093 1.05723 4.37939 1.09056 4.31798 1.13851C4.25656 1.18647 4.20688 1.24778 4.1727 1.3178C4.13852 1.38782 4.12075 1.46471 4.12073 1.54263V1.99415C4.12076 3.73147 5.53418 5.14488 7.27149 5.14488ZM10.2092 5.14488H10.2342C11.9715 5.14488 13.3849 3.73147 13.3849 1.99415V1.54263C13.3849 1.46471 13.3671 1.38781 13.333 1.31778C13.2988 1.24774 13.2491 1.18642 13.1877 1.13846C13.1263 1.09051 13.0547 1.05718 12.9785 1.04102C12.9023 1.02485 12.8234 1.02627 12.7478 1.04517L11.2931 1.40887C11.3111 1.51881 11.321 1.63203 11.321 1.7486C11.321 2.36437 10.9469 3.5068 10.2092 5.14488ZM8.73123 5.14409C8.73844 5.14399 8.74559 5.14355 8.75283 5.14355C8.76008 5.14355 8.76723 5.14399 8.77444 5.14409C8.86911 5.14017 8.96083 5.11007 9.03943 5.05714C9.11802 5.00422 9.1804 4.93054 9.21963 4.84429C9.47202 4.28909 10.2954 2.42498 10.2954 1.7486C10.2954 0.88416 9.23019 0.201211 9.01667 0.0730857C8.93698 0.0252624 8.84578 0 8.75283 0C8.65989 0 8.56869 0.0252624 8.48899 0.0730857C8.27547 0.201211 7.21023 0.88416 7.21023 1.7486C7.21023 2.42498 8.03365 4.28906 8.28604 4.84429C8.32527 4.93054 8.38765 5.00422 8.46624 5.05714C8.54483 5.11007 8.63656 5.14017 8.73123 5.14409Z" fill="white" fill-opacity="0.4"/>
<path d="M10.2989 14.4164V15.442H10.8203C11.103 15.442 11.333 15.212 11.333 14.9292C11.333 14.6465 11.103 14.4164 10.8203 14.4164H10.2989ZM6.17965 14.9292C6.17965 15.212 6.40968 15.442 6.69243 15.442H7.21375V14.4164H6.69243C6.40968 14.4164 6.17965 14.6464 6.17965 14.9292ZM8.2393 14.4164H9.2734V15.442H8.2393V14.4164ZM4.40723 8.74603C4.7594 8.99907 5.23826 9.26305 5.66688 9.26305C6.09542 9.26305 6.57418 8.99917 6.92653 8.74596C6.57435 8.49293 6.09549 8.22895 5.66688 8.22895C5.23833 8.22895 4.75957 8.49282 4.40723 8.74603ZM13.1055 8.74596C12.7533 8.49293 12.2744 8.22895 11.8458 8.22895C11.4173 8.22895 10.9385 8.49282 10.5862 8.74603C10.9383 8.99907 11.4172 9.26305 11.8458 9.26305C12.2744 9.26305 12.7531 8.99917 13.1055 8.74596ZM8.75635 6.16797C8.47125 6.16797 8.2393 6.39991 8.2393 6.68502V10.8056C8.2393 11.0908 8.47125 11.3227 8.75635 11.3227C9.04145 11.3227 9.2734 11.0908 9.2734 10.8056V6.68502C9.2734 6.39991 9.04145 6.16797 8.75635 6.16797Z" fill="white" fill-opacity="0.4"/>
</g>
<defs>
<clipPath id="clip0_2002_4425">
<rect width="17.5027" height="17.5027" fill="white"/>
</clipPath>
</defs>
</svg>
