<svg width="183" height="33" viewBox="0 0 183 33" fill="none" xmlns="http://www.w3.org/2000/svg">
<path fill-rule="evenodd" clip-rule="evenodd" d="M0 0.808729H11.5577V31.4589H0.000279924L0 0.808729ZM8.12047 7.25425V8.31937H11.5577V7.25425H8.12047ZM5.50074 0.808458V31.4592H8.12047V0.809019L5.50074 0.808458ZM0 7.25425V8.31937H5.50074V7.25425H0ZM17.4909 31.4622H28.1144C32.5508 31.4622 36.2957 30.0377 39.2671 27.1478C42.279 24.2579 43.785 20.5947 43.785 16.1989C43.785 11.803 42.279 8.1804 39.2671 5.29049C36.2957 2.40059 32.5508 0.934933 28.1144 0.934933H17.4909V31.4622ZM37.7608 16.1989C37.7608 18.8853 36.8247 21.1645 34.9118 23.0777C33.0395 24.9906 30.76 25.9267 28.1144 25.9267H23.2707V6.4707H28.1144C30.76 6.4707 33.0395 7.44771 34.9118 9.3606C36.8247 11.2738 37.7608 13.553 37.7608 16.1989ZM76.4194 15.9554C76.4194 18.8453 75.4021 21.3282 73.4075 23.404C71.4131 25.4392 68.971 26.4568 66.0812 26.4568C63.1912 26.4568 60.749 25.4392 58.7545 23.404C56.7602 21.3282 55.7426 18.8455 55.7426 15.9554C55.7426 13.0655 56.7599 10.6234 58.7545 8.54758C60.7897 6.47181 63.2318 5.45393 66.0812 5.45393C68.9708 5.45393 71.4132 6.47181 73.4075 8.54758C75.4021 10.6234 76.4194 13.0657 76.4194 15.9554ZM66.0809 31.9111C70.599 31.9111 74.466 30.3643 77.6408 27.3115C80.8562 24.259 82.4439 20.4735 82.4439 15.9554C82.4439 11.4375 80.8562 7.652 77.6408 4.59949C74.466 1.5467 70.5991 -0.000112534 66.0812 -0.000112534C61.5224 -0.000112534 57.6555 1.5467 54.4807 4.59949C51.3059 7.652 49.7185 11.4373 49.7185 15.9554C49.7185 20.4736 51.3059 24.259 54.4807 27.3115C57.6555 30.3643 61.5224 31.9111 66.0812 31.9111M94.1566 25.7969V0.805405H88.3771V31.3327H109.38V25.7969H94.1566Z" fill="#F5F5F7"/>
<path fill-rule="evenodd" clip-rule="evenodd" d="M22.6307 4.77167L36.8823 22.6014L33.9232 24.9668L19.6719 7.13705L22.6307 4.77167Z" fill="#F5F5F7"/>
<path d="M120.794 32.4365V24.5948H118V23.0002H125.486V24.5948H122.705V32.4365H120.794ZM127.755 32.4365V22.9999H129.666V32.4365H127.755ZM132.607 32.4365V22.9999H134.518V27.1801L138.369 23.0002H140.93L137.369 26.6748L141.115 32.4365H138.65L136.053 28.0059L134.518 29.5833V32.4365H132.607ZM143.131 32.4365V22.9999H145.042V32.4365H143.131ZM152.717 22.9999H156.491C157.24 22.9999 157.796 23.0311 158.163 23.0925C158.531 23.1561 158.859 23.2857 159.149 23.4813C159.438 23.6787 159.68 23.94 159.873 24.2674C160.067 24.5948 160.163 24.964 160.163 25.3703C160.163 25.8095 160.045 26.2159 159.808 26.5828C159.57 26.9516 159.248 27.2262 158.841 27.4108C159.415 27.5798 159.854 27.8655 160.163 28.2697C160.471 28.6738 160.625 29.148 160.625 29.695C160.625 30.1256 160.526 30.5428 160.326 30.9495C160.126 31.3556 159.853 31.6808 159.507 31.9248C159.162 32.1663 158.736 32.3156 158.228 32.3729C157.912 32.4057 157.145 32.4276 155.931 32.4365H152.717V22.9999ZM154.628 24.5684V26.7432H155.876C156.616 26.7432 157.077 26.732 157.257 26.7098C157.583 26.6727 157.839 26.5608 158.026 26.374C158.212 26.1874 158.305 25.9428 158.305 25.6402C158.305 25.3484 158.224 25.1129 158.064 24.9309C157.903 24.7485 157.664 24.639 157.348 24.6012C157.158 24.5795 156.616 24.5686 155.722 24.5684H154.628ZM154.628 28.3114V30.8416H156.394C157.079 30.8416 157.517 30.8222 157.701 30.7846C157.985 30.7318 158.215 30.6067 158.393 30.4066C158.571 30.2048 158.661 29.9391 158.661 29.603C158.661 29.3173 158.593 29.078 158.455 28.8804C158.319 28.6825 158.118 28.5376 157.859 28.4473C157.6 28.3575 157.036 28.3111 156.168 28.3111L154.628 28.3114ZM171.834 32.4362H169.776L168.961 30.2882H165.176L164.392 32.4365H162.371L166.035 22.9999H168.053L171.834 32.4362ZM168.341 28.6936L167.03 25.2011L165.756 28.6936H168.341ZM173.949 32.4365V22.9999H177.962C178.97 22.9999 179.704 23.0858 180.161 23.2548C180.62 23.4244 180.984 23.7248 181.259 24.1576C181.534 24.5926 181.672 25.0868 181.672 25.6447C181.672 26.3543 181.466 26.9386 181.051 27.4C180.635 27.8611 180.016 28.151 179.19 28.2716C179.601 28.511 179.939 28.7747 180.205 29.0627C180.472 29.3507 180.833 29.8617 181.286 30.5959L182.437 32.4365H180.159L178.792 30.376C178.303 29.6446 177.967 29.1833 177.784 28.9921C177.604 28.8034 177.413 28.6716 177.211 28.6013C177.007 28.531 176.686 28.4957 176.246 28.4957H175.86V32.4365H173.949ZM175.86 26.9933H177.27C178.184 26.9933 178.753 26.9538 178.981 26.8771C179.207 26.8001 179.388 26.6659 179.515 26.4772C179.644 26.2884 179.708 26.051 179.708 25.7678C179.708 25.4493 179.623 25.1947 179.454 24.9968C179.284 24.8013 179.045 24.6782 178.737 24.6276C178.582 24.6058 178.118 24.5948 177.347 24.5948H175.86V26.9933Z" fill="#9A9B9F"/>
</svg>
